# Blender v2.78 (sub 0) OBJ File: ''
# www.blender.org
mtllib cylinder.mtl
o Cylinder
v 0.000000 -1.000000 -1.000000
v 0.000000 1.000000 -1.000000
v 0.707107 -1.000000 -0.707107
v 0.707107 1.000000 -0.707107
v 1.000000 -1.000000 0.000000
v 1.000000 1.000000 0.000000
v 0.707107 -1.000000 0.707107
v 0.707107 1.000000 0.707107
v -0.000000 -1.000000 1.000000
v -0.000000 1.000000 1.000000
v -0.707107 -1.000000 0.707107
v -0.707107 1.000000 0.707107
v -1.000000 -1.000000 -0.000000
v -1.000000 1.000000 -0.000000
v -0.707107 -1.000000 -0.707107
v -0.707107 1.000000 -0.707107
vt 0.3267 0.2501
vt 0.0001 0.2501
vt 0.0001 0.1251
vt 0.3267 0.1251
vt 0.0001 0.0001
vt 0.3267 0.0001
vt 0.3267 0.9999
vt 0.0001 0.9999
vt 0.0001 0.8749
vt 0.3267 0.8749
vt 0.0001 0.7499
vt 0.3267 0.7499
vt 0.0001 0.6250
vt 0.3267 0.6250
vt 0.0001 0.5000
vt 0.3267 0.5000
vt 0.6286 0.2135
vt 0.5403 0.3018
vt 0.4153 0.3018
vt 0.3269 0.2135
vt 0.3269 0.0885
vt 0.4153 0.0001
vt 0.5403 0.0001
vt 0.6286 0.0885
vt 0.0001 0.3750
vt 0.3267 0.3750
vt 0.5403 0.3021
vt 0.6286 0.3904
vt 0.6286 0.5154
vt 0.5403 0.6038
vt 0.4153 0.6038
vt 0.3269 0.5154
vt 0.3269 0.3904
vt 0.4153 0.3021
vn 0.3827 0.0000 -0.9239
vn 0.9239 0.0000 -0.3827
vn 0.9239 0.0000 0.3827
vn 0.3827 0.0000 0.9239
vn -0.3827 0.0000 0.9239
vn -0.9239 0.0000 0.3827
vn 0.0000 1.0000 -0.0000
vn -0.9239 0.0000 -0.3827
vn -0.3827 0.0000 -0.9239
vn 0.0000 -1.0000 0.0000
usemtl None
s off
f 1/1/1 2/2/1 4/3/1 3/4/1
f 3/4/2 4/3/2 6/5/2 5/6/2
f 5/7/3 6/8/3 8/9/3 7/10/3
f 7/10/4 8/9/4 10/11/4 9/12/4
f 9/12/5 10/11/5 12/13/5 11/14/5
f 11/14/6 12/13/6 14/15/6 13/16/6
f 4/17/7 2/18/7 16/19/7 14/20/7 12/21/7 10/22/7 8/23/7 6/24/7
f 13/16/8 14/15/8 16/25/8 15/26/8
f 15/26/9 16/25/9 2/2/9 1/1/9
f 1/27/10 3/28/10 5/29/10 7/30/10 9/31/10 11/32/10 13/33/10 15/34/10
