# Blender v2.78 (sub 0) OBJ File: ''
# www.blender.org
mtllib planes.mtl
o Plane.002
v -1.000000 2.000000 1.000000
v 1.000000 2.000000 1.000000
v -1.000000 2.000000 -1.000000
v 1.000000 2.000000 -1.000000
vt 0.0001 0.0001
vt 0.9999 0.0001
vt 0.9999 0.9999
vt 0.0001 0.9999
vn 0.0000 1.0000 0.0000
usemtl Material.003
s off
f 1/1/1 2/2/1 4/3/1 3/4/1
o Plane.001
v -1.000000 1.000000 1.000000
v 1.000000 1.000000 1.000000
v -1.000000 1.000000 -1.000000
v 1.000000 1.000000 -1.000000
vt 0.0001 0.0001
vt 0.9999 0.0001
vt 0.9999 0.9999
vt 0.0001 0.9999
vn 0.0000 1.0000 0.0000
usemtl Material.002
s off
f 5/5/2 6/6/2 8/7/2 7/8/2
o Plane
v -1.000000 0.000000 1.000000
v 1.000000 0.000000 1.000000
v -1.000000 0.000000 -1.000000
v 1.000000 0.000000 -1.000000
vt 0.0001 0.0001
vt 0.9999 0.0001
vt 0.9999 0.9999
vt 0.0001 0.9999
vn 0.0000 1.0000 0.0000
usemtl Material.001
s off
f 9/9/3 10/10/3 12/11/3 11/12/3
