<svg xmlns="http://www.w3.org/2000/svg" width="468" height="216" baseProfile="tiny" overflow="scroll">
  <path fill="#509DF9" d="M5.6 54l46 23V31m50.8 23l-46-23v46m46 31l-46-23v46M5.6 108l46 23V85m-3.2-4l-46-23v46m57.2-77l46 23V4M5.6 162l46 23v-46m-3.2-4l-46-23v46m46 31l-46-23v46M131.6 54l46 23V31m50.8 23l-46-23v46m46 31l-46-23v46m-50.8-23l46 23V85m-3.2-4l-46-23v46m57.2-77l46 23V4m-100 158l46 23v-46m-3.2-4l-46-23v46m46 31l-46-23v46m172-185l-46-23v46m46 31l-46-23v46m46 31l-46-23v46m46 31l-46-23v46m3.2-50l46 23v-46m-46-31l46 23V85m-46-31l46 23V31m8 104l46 23v-46m-3.2 50l-46-23v46m100-50l-46-23v46m3.2 4l46 23v-46m50.8 23l-46-23v46m3.2 4l46 23v-46m-3.2-112l-46-23v46m46 31l-46-23v46m3.2 4l46 23v-46m-46-31l46 23V58m-46-31l46 23V4"/>
</svg>
